<svg width="250" height="250" viewBox="0 0 24.053027 24.053027" version="1.1" id="esfera_base_A" xml:space="preserve"
     xmlns:xlink="http://www.w3.org/1999/xlink" xmlns="http://www.w3.org/2000/svg"
     xmlns:svg="http://www.w3.org/2000/svg">

     <path id="rect8" style="display:inline;fill:#d1bd31;fill-opacity:0.947522;stroke:none;stroke-width:0.727272"
          d="m 11.86451,4.0167416 c -0.857731,-9.73e-5 -1.553116,0.6210375 -1.553111,1.3872771 9.15e-4,0.048531 0.0047,0.096985 0.01128,0.1451638 0,0 -0.5168037,-0.049174 -0.5483985,0.010658 C 9.41437,6.2414062 9.8828326,7.8813947 9.8828326,7.8813947 l 4.0485754,0.2122947 c 0,0 0.21469,-1.8613046 -0.05856,-2.5445069 -0.05751,-0.1437976 -0.464618,0 -0.464618,0 0.0058,-0.048216 0.0088,-0.09667 0.0089,-0.1451638 5e-6,-0.7660759 -0.695094,-1.387143 -1.552642,-1.3872771 z m 0,0.4350215 c 0.560144,1.534e-4 1.01417,0.4171668 1.014268,0.931585 7.6e-5,0.055605 -0.0053,0.1111046 -0.01597,0.1658344 h -1.996589 c -0.01086,-0.054717 -0.01636,-0.1102164 -0.01644,-0.1658344 9.8e-5,-0.5145863 0.45441,-0.9316695 1.014737,-0.931585 z" />
     <ellipse style="fill:#c10000;fill-opacity:1;stroke:none;stroke-width:0.727272" id="path2" cx="11.760735"
          cy="14.14187" rx="7.1641097" ry="6.7292938" />
     <path style="fill:#9c0b0b;fill-opacity:0.94752187;stroke:none;stroke-width:0.727272"
          d="M 11.222391,7.4953978 C 14.791597,14.562533 11.702794,17.375941 7.4125758,19.421777 9.168355,21.755272 17.520165,22.680004 19.090488,14.700918 18.757129,10.703405 16.560816,7.1358444 11.222391,7.4953978 Z"
          id="path4" />
     <path style="fill:#790808;fill-opacity:0.947522;stroke:none;stroke-width:0.727272"
          d="M 15.743299,8.3612246 C 17.117215,16.704997 14.311689,18.038518 10.228526,20.953985 16.68805,22.56843 23.356443,13.893402 15.743299,8.3612246 Z"
          id="path5" />
     <path id="path7" style="fill:#ffffff;fill-opacity:0.94752198;stroke:none;stroke-width:0.727272"
          d="M 10.683866 9.2759183 A 0.91104287 0.89033729 0 0 0 9.7729516 10.166632 A 0.91104287 0.89033729 0 0 0 10.683866 11.056876 A 0.91104287 0.89033729 0 0 0 11.59525 10.166632 A 0.91104287 0.89033729 0 0 0 10.683866 9.2759183 z M 8.261651 9.5244349 A 0.55904901 0.57975453 0 0 0 7.7026061 10.10415 A 0.55904901 0.57975453 0 0 0 8.261651 10.683866 A 0.55904901 0.57975453 0 0 0 8.820696 10.10415 A 0.55904901 0.57975453 0 0 0 8.261651 9.5244349 z M 13.790089 17.640922 A 1.0352759 0.97315943 0 0 0 12.754681 18.614318 A 1.0352759 0.97315943 0 0 0 13.790089 19.587244 A 1.0352759 0.97315943 0 0 0 14.825027 18.614318 A 1.0352759 0.97315943 0 0 0 13.790089 17.640922 z " />
</svg>