<svg width="100" height="100" viewBox="0 0 24.053027 24.053027" version="1.1" id="svg1" xml:space="preserve"
     xmlns="http://www.w3.org/2000/svg" xmlns:svg="http://www.w3.org/2000/svg">
     
     <path id="rect8" style="display:inline;fill:#d1bd31;fill-opacity:0.947522;stroke:none;stroke-width:0.727272"
          d="m 11.86451,4.0167416 c -0.857731,-9.73e-5 -1.553116,0.6210375 -1.553111,1.3872771 9.15e-4,0.048531 0.0047,0.096985 0.01128,0.1451638 0,0 -0.5168037,-0.049174 -0.5483985,0.010658 C 9.41437,6.2414062 9.8828326,7.8813947 9.8828326,7.8813947 l 4.0485754,0.2122947 c 0,0 0.21469,-1.8613046 -0.05856,-2.5445069 -0.05751,-0.1437976 -0.464618,0 -0.464618,0 0.0058,-0.048216 0.0088,-0.09667 0.0089,-0.1451638 5e-6,-0.7660759 -0.695094,-1.387143 -1.552642,-1.3872771 z m 0,0.4350215 c 0.560144,1.534e-4 1.01417,0.4171668 1.014268,0.931585 7.6e-5,0.055605 -0.0053,0.1111046 -0.01597,0.1658344 h -1.996589 c -0.01086,-0.054717 -0.01636,-0.1102164 -0.01644,-0.1658344 9.8e-5,-0.5145863 0.45441,-0.9316695 1.014737,-0.931585 z" />
     <ellipse style="display:inline;fill:#ac1818;fill-opacity:1;stroke:none;stroke-width:0.727272" id="path2"
          cx="11.760735" cy="14.14187" rx="7.1641097" ry="6.7292938" />
     <path style="fill:#ffffff;fill-opacity:1;stroke:none;stroke-width:0.727272"
          d="m 6.0796609,11.303447 c 0.1108204,0.415761 1.2690553,0.236103 1.2690553,0.236103 0,0 -1.8455496,1.273769 -2.1249301,2.272495 -0.1164284,0.416207 -0.1184451,1.070862 0.2656164,1.269055 0.6772831,0.349508 0.7968487,0.02951 0.7968487,0.02951 -1.1862192,1.944823 0.3559991,4.449832 2.5676238,3.098857 0,0 0.047934,0.759651 0.3541549,1.475645 1.3694471,1.682424 2.3216001,-0.06452 3.6300881,-0.737823 0,0 -0.595054,0.723516 -0.20659,1.21003 1.538969,0.786629 4.096863,-2.17534 4.869632,-3.03983 1.684259,-1.921657 -0.08717,-2.610763 -0.590259,-2.83324 -0.614628,-0.735169 0.810676,-1.682691 0.236104,-2.449573 -0.472486,-0.630625 -2.230566,0.05936 -1.623212,-0.44269 0.783892,-0.647981 1.079809,-1.6187069 0.354156,-2.3020077 C 15.396752,8.6368664 11.998195,10.589318 12.306887,10.004879 12.481834,9.6736541 12.694159,8.0382902 11.303447,8.5292328 10.200892,9.2434467 5.9301445,9.5222034 6.0796609,11.303447 Z"
          id="path1" />
</svg>